# xmcd
#
# Track frame offsets:
#	150
#	69818
#	96588
#
# Disc length: 1889 seconds
#
# Revision: 1
# Processed by: cddbd v1.5.2PL0 Copyright (c) Steve Scherf et al.
# Submitted via: audiograbber 1.83.01
#
DISCID=20075f03
DTITLE=Micky and The Hartbeats - 68-10-30 The Matrix, San Francisco CA
DYEAR=1900
DGENRE=
TTITLE0=Dark Star Jam
TTITLE1=The Eleven Jam
TTITLE2=The Seven
EXTD=
EXTT0=
EXTT1=
EXTT2=
PLAYORDER=
